Coordinates
version=1
nRows=16
nColumns=36
inDegrees=yes

Units are S.I. units (second, meters, Newtons, ...)
If the header above contains a line with 'inDegrees', this indicates whether rotational values are in degrees (yes) or radians (no).

endheader
time	pelvis_tilt	pelvis_list	pelvis_rotation	pelvis_tx	pelvis_ty	pelvis_tz	hip_flexion_r	hip_adduction_r	hip_rotation_r	knee_angle_r	knee_angle_r_beta	ankle_angle_r	subtalar_angle_r	mtp_angle_r	hip_flexion_l	hip_adduction_l	hip_rotation_l	knee_angle_l	knee_angle_l_beta	ankle_angle_l	subtalar_angle_l	mtp_angle_l	lumbar_extension	lumbar_bending	lumbar_rotation	arm_flex_r	arm_add_r	arm_rot_r	elbow_flex_r	pro_sup_r	arm_flex_l	arm_add_l	arm_rot_l	elbow_flex_l	pro_sup_l
      0.71000000	     -1.94780265	      2.75359072	     -3.21419367	      0.79367094	      0.93583596	     -0.21076899	     -8.63814567	     -3.05909765	     -0.76566367	     36.73030897	      0.64106483	     -1.79482522	     -2.60263730	     -7.05456238	     23.25569501	      4.82539289	     -4.02352245	     17.67972621	      0.30856943	     -2.37639409	    -11.58166736	     -7.05456238	     -2.06704848	     -5.77011821	     11.45771545	      5.80644160	     -2.64898334	      0.15581406	     35.53072824	    105.39776684	    -14.24759720	     -2.45820279	    -22.75982953	     20.16440285	     98.21753108
      0.72000000	     -1.92825920	      3.05563661	     -3.19798607	      0.80529313	      0.93700957	     -0.21228092	     -6.69234528	     -3.75755936	     -0.92852035	     40.68986430	      0.71017210	     -3.99623016	     -3.55739719	     -7.06413907	     22.58929024	      5.22453595	     -4.42991802	     17.99321767	      0.31404089	     -1.38759069	    -11.11921560	     -7.06413907	     -2.12798636	     -6.17535607	     11.01105293	      5.68876667	     -2.66857098	      0.54856151	     35.15173173	    105.32574590	    -13.77913781	     -2.55723107	    -22.74905537	     20.71908791	     98.34513579
      0.73000000	     -1.78386386	      3.46407628	     -3.17594974	      0.81671447	      0.93827500	     -0.21376947	     -4.82747833	     -4.60526454	     -1.16195110	     44.59674663	      0.77836006	     -5.53726582	     -4.22594368	     -7.06974402	     21.65375153	      5.78326022	     -4.78258445	     18.00307166	      0.31421288	     -0.44859114	    -10.84255648	     -7.06974402	     -2.36741516	     -6.71252629	     10.54964944	      5.58589113	     -2.64302630	      0.76791897	     34.89706677	    105.28207723	    -13.14685886	     -2.66171793	    -22.70153513	     21.20050962	     98.42988978
      0.74000000	     -1.80892031	      3.70191824	     -3.16826204	      0.82780792	      0.93926173	     -0.21496479	     -2.73205679	     -5.12486133	     -1.12948981	     48.37091473	      0.84423172	     -6.84512040	     -5.74239703	     -7.09410840	     20.96564296	      6.03807903	     -5.55314652	     18.12735913	      0.31638210	      0.97082774	     -9.53098913	     -7.09410840	     -2.42031801	     -7.06766953	     10.01068674	      5.58777006	     -2.69518564	      1.42340671	     34.41288936	    105.13567608	    -12.61633425	     -2.74827463	    -22.91762316	     21.93135813	     98.60736337
      0.75000000	     -1.69573421	      4.05697128	     -3.18214683	      0.83869140	      0.94043497	     -0.21622872	     -0.73738677	     -5.83491147	     -1.16647553	     52.03109567	      0.90811393	     -7.05014842	     -6.54449956	     -7.09870086	     19.95338448	      6.56860499	     -5.66981899	     17.85744960	      0.31167129	      1.66883281	     -9.35077941	     -7.09870086	     -2.67424589	     -7.53919871	      9.53211922	      5.52351135	     -2.67711635	      1.49163888	     34.22002380	    105.10931840	    -11.84420460	     -2.90455226	    -22.79773876	     22.41429033	     98.67903993
      0.76000000	     -1.80643451	      4.28676839	     -3.20727735	      0.84933200	      0.94133536	     -0.21733954	      1.53028031	     -6.29371039	     -1.05066735	     55.49371108	      0.96854797	     -6.76264670	     -7.72930024	     -7.10733688	     19.20917415	      6.92141653	     -5.86184275	     17.60437791	      0.30725436	      2.36447626	     -8.97026878	     -7.10733688	     -2.62301718	     -7.85623662	      9.10252606	      5.44233802	     -2.70481009	      1.66823552	     33.86953827	    105.09160364	    -11.13352889	     -3.06942957	    -22.55779767	     23.03267397	     98.78043940
      0.77000000	     -1.80408724	      4.47887206	     -3.24277028	      0.85986024	      0.94247414	     -0.21837989	      3.64906966	     -6.68341660	     -0.93712691	     58.63046141	      1.02329459	     -6.15128937	     -8.89519107	     -7.11342422	     18.29869574	      7.25723589	     -5.97695345	     17.26455192	      0.30132327	      3.04727567	     -8.69882755	     -7.11342422	     -2.73704824	     -8.13369836	      8.63355542	      5.38886478	     -2.73428223	      1.81155462	     33.56532562	    105.09074139	    -10.30353428	     -3.24127278	    -22.25352386	     23.52214456	     98.87026163
      0.78000000	     -1.81158774	      4.57309646	     -3.28340996	      0.87021190	      0.94371007	     -0.21936548	      5.74724189	     -6.89554079	     -0.75539243	     61.41037615	      1.07181326	     -5.37589565	    -10.00832449	     -7.11778831	     17.40084181	      7.49112477	     -6.02106988	     16.91931305	      0.29529772	      3.64366780	     -8.46439798	     -7.11778831	     -2.87456080	     -8.29300772	      8.14258456	      5.35316579	     -2.79556361	      1.92637357	     33.25968199	    105.09211154	     -9.42062460	     -3.38942131	    -21.86657135	     23.99129763	     98.97447263
      0.79000000	     -1.79720441	      4.54854611	     -3.32682110	      0.88042488	      0.94506738	     -0.22016206	      7.77504396	     -6.87930414	     -0.50521308	     63.82801096	      1.11400895	     -4.62496299	    -10.96953226	     -7.12106616	     16.48444219	      7.59129886	     -5.97843023	     16.59918822	      0.28971049	      4.14316438	     -8.22417748	     -7.12106616	     -3.00951233	     -8.30796847	      7.62583956	      5.34041676	     -2.81551407	      2.03828458	     32.96835448	    105.09299024	     -8.49705166	     -3.56061287	    -21.42098356	     24.44850249	     99.09744012
      0.80000000	     -2.00026500	      4.47455365	     -3.29805150	      0.89073489	      0.94626837	     -0.22109528	      9.96608682	     -6.81337625	     -0.41256875	     65.85674900	      1.14941710	     -3.81913580	    -11.86426736	     -7.12705585	     15.76815215	      7.63342014	     -6.00546113	     16.19166251	      0.28259782	      4.77711649	     -7.86555921	     -7.12705585	     -2.83365878	     -8.24152866	      7.13966607	      5.21255117	     -2.92337365	      2.26545182	     32.48108957	    105.09462924	     -7.64006888	     -3.76537090	    -20.51031557	     24.89425084	     99.34177905
      0.81000000	     -2.07186708	      4.25296525	     -3.23564167	      0.90088528	      0.94776843	     -0.22190262	     11.90056426	     -6.49475525	     -0.27824077	     67.42252249	      1.17674501	     -3.25245066	    -12.41110680	     -7.16144905	     14.96842928	      7.46703770	     -6.27428623	     15.93014819	      0.27803354	      5.65476052	     -6.89090976	     -7.16144905	     -2.83505679	     -7.97750751	      6.64965958	      5.11621923	     -3.11606745	      2.68411067	     32.05555164	    105.03645413	     -6.51289302	     -4.28246102	    -17.79520562	     24.49194650	    100.17142670
      0.82000000	     -2.11371768	      3.99076038	     -3.12187698	      0.91100377	      0.94938315	     -0.22275694	     13.70410408	     -6.13545020	     -0.24113713	     68.59015851	      1.19712410	     -2.79737385	    -12.81209698	     -7.16655461	     14.04371762	      7.33968166	     -6.07713118	     15.47280759	      0.27005144	      6.10480961	     -6.65318340	     -7.16655461	     -2.91081851	     -7.70505102	      5.98303631	      5.02395604	     -3.18940135	      2.64266495	     31.72857440	    104.99538615	     -5.55559390	     -4.40764715	    -17.35929824	     24.99362480	    100.34742161
      0.83000000	     -2.11868209	      3.63239232	     -2.93986749	      0.92104967	      0.95110189	     -0.22352001	     15.34994978	     -5.63658276	     -0.27511131	     69.35290629	      1.21043656	     -2.29773227	    -12.76661592	     -7.18767121	     13.10775203	      7.07221652	     -6.01139776	     15.07963358	      0.26318926	      6.71089151	     -6.06186531	     -7.18767121	     -3.02535284	     -7.32298880	      5.26975440	      4.94655575	     -3.29538034	      2.78527239	     31.36013842	    104.87916981	     -4.49260478	     -4.75894471	    -15.79946557	     25.04612789	    100.93996355
      0.84000000	     -2.11212537	      3.28176893	     -2.69584264	      0.93113960	      0.95283701	     -0.22439489	     16.87918488	     -5.17357501	     -0.40967992	     69.73654084	      1.21713225	     -1.94495164	    -12.87724094	     -7.19205003	     12.07993994	      6.86810400	     -5.68165560	     14.51267315	      0.25329393	      7.14783347	     -5.72346368	     -7.19205003	     -3.14069141	     -6.92976452	      4.48441809	      4.82519232	     -3.38133895	      2.66010321	     31.08117313	    104.81867330	     -3.48284594	     -4.88635399	    -15.45332556	     25.49080136	    101.09545404
      0.85000000	     -2.08910585	      2.98681262	     -2.40610431	      0.94101535	      0.95453628	     -0.22511696	     18.33560522	     -4.75330779	     -0.56636367	     69.80205588	      1.21827570	     -1.82175414	    -12.88005416	     -7.19263023	     11.19716807	      6.65565257	     -5.80059663	     14.20267310	      0.24788341	      7.27895408	     -5.67667250	     -7.19263023	     -3.32810447	     -6.65807840	      3.67798053	      4.66803417	     -3.43945294	      2.62049821	     30.94215422	    104.80079323	     -2.33960434	     -5.07333222	    -15.33588614	     25.92070110	    101.15834697
      0.86000000	     -2.00010383	      2.42427945	     -2.08540297	      0.95117621	      0.95634434	     -0.22585978	     19.53238580	     -4.03722588	     -0.83653136	     69.44991465	      1.21212968	     -1.24834416	    -12.61643084	     -7.19582027	      9.94303661	      6.22895717	     -5.03015805	     13.39956022	      0.23386644	      7.86091436	     -5.05175538	     -7.19582027	     -3.45659851	     -6.01193973	      2.73538169	      4.61326718	     -3.52301980	      2.37313443	     30.61371538	    104.71852928	     -1.44618003	     -5.22058806	    -14.80590007	     26.41107745	    101.34345012
